{"title":"The Big Bang Theory - S05E08 - 720p WEB-DL H.264 {$H@uN}","uid":6797306,"size":207387824,"categoryP":"video","categoryS":"hd___tv_shows","magnet":"?xt=urn:btih:0fc4d5bffa89f9e44a99eb9db720dd4769b46579&amp;dn=The+Big+Bang+Theory+-+S05E08+-+720p+WEB-DL+H.264+%7B%24H%40uN%7D&amp;tr=udp%3A%2F%2Ftracker.openbittorrent.com%3A80&amp;tr=udp%3A%2F%2Fopen.demonii.com%3A1337&amp;tr=udp%3A%2F%2Ftracker.coppersurfer.tk%3A6969&amp;tr=udp%3A%2F%2Fexodus.desync.com%3A6969","seeders":1,"leechers":3,"uploader":"ShaunGP","files":-1,"time":1320506343,"description":"&quot;WEB-DL means straight from iTunes where they release &quot;Bluray&quot; quality episodes.\n Such episodes are without any Logo and Caps.&quot;\n\nThe Big Bang Theory - S05E08 - The Isolation Permutation - 720p WEB-DL H.264 {$H@uN}\n\nGeneral:\n\nComplete name                  : The Big Bang Theory - S05E08 - The Isolation Permutation - 720p WEB-DL H.264 {$H@uN}.mkv\nOriginal air date              : November 3 2011\nGenre                          : Sitcom\nLanguage                       : English\nEncoder                        : $H@uN\nFile format                    : Matroska\nFile size                      : 198 MiB\nDuration                       : 21mn 14s\nOverall bit rate               : 1 301 Kbps\n\n\nVideo:\n\nFormat                         : AVC\nDuration                       : 21mn 14s\nBit rate                       : 1 200 Kbps\nWidth                          : 1 280 pixels\nHeight                         : 720 pixels\nDisplay aspect ratio           : 16:9\nFrame rate mode                : Variable\nFrame rate                     : 23.976 fps\nColor space                    : YUV\nChroma subsampling             : 4:2:0\nBit depth                      : 8 bits\nScan type                      : Progressive\nBits/(Pixel*Frame)             : 0.054\nStream size                    : 179 MiB (91%)\nWriting library                : x264 core 112\nLaguage                        : English\nSubtitles                      : Seperate .srt file included\n\n\nAudio:\n\nFormat                         : AC-3\nMode extension                 : CM (complete main)\nCodec ID                       : A_AC3\nDuration                       : 21mn 14s\nBit rate mode                  : Constant\nBit rate                       : 96 Kbps\nChannel(s)                     : 2 channels\nChannel positions              : Front: L R\nSampling rate                  : 48.0 KHz\nBit depth                      : 16 bits\nCompression mode               : Lossy\nStream size                    : 14.6 MiB (7%)\nLanguage                       : English\n\nScreen Shots:\n &lt;a href=&quot;\nhttp://i1140.photobucket.com/albums/n566/ShaunGP/ScreenShots1/TheBigBangTheory-S05E08-TheIsolationPermutation-720pWEB-DLH264HuNmkv_snapshot_1016_20111104_233959.jpg&quot; rel=&quot;nofollow&quot; target=&quot;_NEW&quot;&gt;\nhttp://i1140.photobucket.com/albums/n566/ShaunGP/ScreenShots1/TheBigBangTheory-S05E08-TheIsolationPermutation-720pWEB-DLH264HuNmkv_snapshot_1016_20111104_233959.jpg&lt;/a&gt;\n &lt;a href=&quot;\nhttp://i1140.photobucket.com/albums/n566/ShaunGP/ScreenShots1/TheBigBangTheory-S05E08-TheIsolationPermutation-720pWEB-DLH264HuNmkv_snapshot_0315_20111104_233929.jpg&quot; rel=&quot;nofollow&quot; target=&quot;_NEW&quot;&gt;\nhttp://i1140.photobucket.com/albums/n566/ShaunGP/ScreenShots1/TheBigBangTheory-S05E08-TheIsolationPermutation-720pWEB-DLH264HuNmkv_snapshot_0315_20111104_233929.jpg&lt;/a&gt;\n &lt;a href=&quot;\nhttp://i1140.photobucket.com/albums/n566/ShaunGP/ScreenShots1/TheBigBangTheory-S05E08-TheIsolationPermutation-720pWEB-DLH264HuNmkv_snapshot_0005_20111104_233801.jpg&quot; rel=&quot;nofollow&quot; target=&quot;_NEW&quot;&gt;\nhttp://i1140.photobucket.com/albums/n566/ShaunGP/ScreenShots1/TheBigBangTheory-S05E08-TheIsolationPermutation-720pWEB-DLH264HuNmkv_snapshot_0005_20111104_233801.jpg&lt;/a&gt;\n\n\nEncoder's Notes:\n\nDo Provide Feedback.\nKeep in Mind, you are charged nothing for Downloading a TORRENT,\nso its your duty to SEED n keep the torrent alive for as long as possible.\nEnjoy..!!! Keep Seeding till 1:1 ratio...","torrent":{"xt":"urn:btih:0fc4d5bffa89f9e44a99eb9db720dd4769b46579","amp;dn":"The+Big+Bang+Theory+-+S05E08+-+720p+WEB-DL+H.264+%7B%24H%40uN%7D","amp;tr":["udp%3A%2F%2Ftracker.openbittorrent.com%3A80","udp%3A%2F%2Fopen.demonii.com%3A1337","udp%3A%2F%2Ftracker.coppersurfer.tk%3A6969","udp%3A%2F%2Fexodus.desync.com%3A6969"],"infoHash":"0fc4d5bffa89f9e44a99eb9db720dd4769b46579","infoHashBuffer":{"type":"Buffer","data":[15,196,213,191,250,137,249,228,74,153,235,157,183,32,221,71,105,180,101,121]},"announce":[],"urlList":[]}}